<svg width="283" height="261" viewBox="0 0 283 261" fill="none" xmlns="http://www.w3.org/2000/svg">
<path d="M229 31L234.431 41.5694L245 47L234.431 52.4306L229 63L223.569 52.4306L213 47L223.569 41.5694L229 31Z" fill="#F5D540"/>
<path d="M193 0L196.394 6.60589L203 10L196.394 13.3941L193 20L189.606 13.3941L183 10L189.606 6.60589L193 0Z" fill="#F5D540"/>
<g filter="url(#filter0_bdi_4_144)">
<path fill-rule="evenodd" clip-rule="evenodd" d="M78 182.989C77.6675 182.996 77.3342 183 77 183C52.1472 183 32 162.853 32 138C32 121.134 41.2787 106.435 55.0099 98.7296C55.0033 98.3205 55 97.9107 55 97.5C55 56.3548 88.3548 23 129.5 23C164.991 23 194.686 47.8177 202.177 81.0456C229.334 82.186 251 104.563 251 132C251 160.167 228.167 183 200 183H78V182.989Z" fill="url(#paint0_radial_4_144)" fill-opacity="0.77"/>
</g>
<g style="mix-blend-mode:soft-light" filter="url(#filter1_di_4_144)">
<circle cx="77" cy="138" r="45" fill="#848484"/>
</g>
<path d="M122.523 212.551L127 183H155L149.888 204.3C149.435 206.186 150.865 208 152.805 208H155.424C157.814 208 159.244 210.659 157.927 212.653L126 261L136.994 219.773C137.502 217.868 136.066 216 134.095 216H125.489C123.653 216 122.248 214.366 122.523 212.551Z" fill="url(#paint1_linear_4_144)"/>
<mask id="mask0_4_144" style="mask-type:alpha" maskUnits="userSpaceOnUse" x="32" y="23" width="219" height="160">
<path fill-rule="evenodd" clip-rule="evenodd" d="M78 182.989C77.6675 182.996 77.3342 183 77 183C52.1472 183 32 162.853 32 138C32 121.134 41.2787 106.435 55.0099 98.7296C55.0033 98.3205 55 97.9107 55 97.5C55 56.3548 88.3548 23 129.5 23C164.991 23 194.686 47.8177 202.177 81.0456C229.334 82.186 251 104.563 251 132C251 160.167 228.167 183 200 183C198.654 183 197.32 182.948 196 182.845V183H78V182.989Z" fill="url(#paint2_radial_4_144)" fill-opacity="0.77"/>
</mask>
<g mask="url(#mask0_4_144)">
<g filter="url(#filter2_f_4_144)">
<path d="M139 145C112.544 164.479 88.5142 178.005 73 183H210C193.343 183 158.189 156.55 139 145Z" fill="url(#paint3_radial_4_144)"/>
</g>
<g style="mix-blend-mode:screen" filter="url(#filter3_f_4_144)">
<path d="M145 128C128.284 137.573 104.802 182.545 95 185H195C184.475 185 157.124 133.677 145 128Z" fill="url(#paint4_linear_4_144)"/>
</g>
<g style="mix-blend-mode:screen" filter="url(#filter4_f_4_144)">
<path d="M140 140C128.781 146.402 112.579 183.358 106 185L173 183C165.936 183 148.137 143.796 140 140Z" fill="url(#paint5_linear_4_144)"/>
</g>
</g>
<defs>
<filter id="filter0_bdi_4_144" x="0" y="7" width="283" height="224" filterUnits="userSpaceOnUse" color-interpolation-filters="sRGB">
<feFlood flood-opacity="0" result="BackgroundImageFix"/>
<feGaussianBlur in="BackgroundImage" stdDeviation="8"/>
<feComposite in2="SourceAlpha" operator="in" result="effect1_backgroundBlur_4_144"/>
<feColorMatrix in="SourceAlpha" type="matrix" values="0 0 0 0 0 0 0 0 0 0 0 0 0 0 0 0 0 0 127 0" result="hardAlpha"/>
<feOffset dy="16"/>
<feGaussianBlur stdDeviation="16"/>
<feColorMatrix type="matrix" values="0 0 0 0 0 0 0 0 0 0.2015 0 0 0 0 0.3875 0 0 0 0.2 0"/>
<feBlend mode="normal" in2="effect1_backgroundBlur_4_144" result="effect2_dropShadow_4_144"/>
<feBlend mode="normal" in="SourceGraphic" in2="effect2_dropShadow_4_144" result="shape"/>
<feColorMatrix in="SourceAlpha" type="matrix" values="0 0 0 0 0 0 0 0 0 0 0 0 0 0 0 0 0 0 127 0" result="hardAlpha"/>
<feOffset dx="1" dy="2"/>
<feGaussianBlur stdDeviation="7"/>
<feComposite in2="hardAlpha" operator="arithmetic" k2="-1" k3="1"/>
<feColorMatrix type="matrix" values="0 0 0 0 1 0 0 0 0 1 0 0 0 0 1 0 0 0 1 0"/>
<feBlend mode="normal" in2="shape" result="effect3_innerShadow_4_144"/>
</filter>
<filter id="filter1_di_4_144" x="24" y="77" width="120" height="118" filterUnits="userSpaceOnUse" color-interpolation-filters="sRGB">
<feFlood flood-opacity="0" result="BackgroundImageFix"/>
<feColorMatrix in="SourceAlpha" type="matrix" values="0 0 0 0 0 0 0 0 0 0 0 0 0 0 0 0 0 0 127 0" result="hardAlpha"/>
<feOffset dx="-2" dy="-10"/>
<feGaussianBlur stdDeviation="3"/>
<feColorMatrix type="matrix" values="0 0 0 0 0 0 0 0 0 0 0 0 0 0 0 0 0 0 0.22 0"/>
<feBlend mode="normal" in2="BackgroundImageFix" result="effect1_dropShadow_4_144"/>
<feBlend mode="normal" in="SourceGraphic" in2="effect1_dropShadow_4_144" result="shape"/>
<feColorMatrix in="SourceAlpha" type="matrix" values="0 0 0 0 0 0 0 0 0 0 0 0 0 0 0 0 0 0 127 0" result="hardAlpha"/>
<feOffset dx="22" dy="12"/>
<feGaussianBlur stdDeviation="11"/>
<feComposite in2="hardAlpha" operator="arithmetic" k2="-1" k3="1"/>
<feColorMatrix type="matrix" values="0 0 0 0 1 0 0 0 0 1 0 0 0 0 1 0 0 0 0.74 0"/>
<feBlend mode="normal" in2="shape" result="effect2_innerShadow_4_144"/>
</filter>
<filter id="filter2_f_4_144" x="65" y="137" width="153" height="54" filterUnits="userSpaceOnUse" color-interpolation-filters="sRGB">
<feFlood flood-opacity="0" result="BackgroundImageFix"/>
<feBlend mode="normal" in="SourceGraphic" in2="BackgroundImageFix" result="shape"/>
<feGaussianBlur stdDeviation="4" result="effect1_foregroundBlur_4_144"/>
</filter>
<filter id="filter3_f_4_144" x="91" y="124" width="108" height="65" filterUnits="userSpaceOnUse" color-interpolation-filters="sRGB">
<feFlood flood-opacity="0" result="BackgroundImageFix"/>
<feBlend mode="normal" in="SourceGraphic" in2="BackgroundImageFix" result="shape"/>
<feGaussianBlur stdDeviation="2" result="effect1_foregroundBlur_4_144"/>
</filter>
<filter id="filter4_f_4_144" x="102" y="136" width="75" height="53" filterUnits="userSpaceOnUse" color-interpolation-filters="sRGB">
<feFlood flood-opacity="0" result="BackgroundImageFix"/>
<feBlend mode="normal" in="SourceGraphic" in2="BackgroundImageFix" result="shape"/>
<feGaussianBlur stdDeviation="2" result="effect1_foregroundBlur_4_144"/>
</filter>
<radialGradient id="paint0_radial_4_144" cx="0" cy="0" r="1" gradientUnits="userSpaceOnUse" gradientTransform="translate(109.164 57.1145) rotate(90.6693) scale(125.829 143.587)">
<stop stop-color="white"/>
<stop offset="1" stop-color="#99CEFF"/>
</radialGradient>
<linearGradient id="paint1_linear_4_144" x1="144.067" y1="183" x2="144.067" y2="235" gradientUnits="userSpaceOnUse">
<stop stop-color="#E2BC38"/>
<stop offset="1" stop-color="#FFE244"/>
</linearGradient>
<radialGradient id="paint2_radial_4_144" cx="0" cy="0" r="1" gradientUnits="userSpaceOnUse" gradientTransform="translate(109.164 57.1144) rotate(90.6693) scale(125.829 143.587)">
<stop stop-color="white"/>
<stop offset="1" stop-color="#99CEFF"/>
</radialGradient>
<radialGradient id="paint3_radial_4_144" cx="0" cy="0" r="1" gradientUnits="userSpaceOnUse" gradientTransform="translate(151.889 178.786) rotate(-90) scale(21.5393 111.274)">
<stop stop-color="#FFDE41"/>
<stop offset="1" stop-color="#FFD200" stop-opacity="0"/>
</radialGradient>
<linearGradient id="paint4_linear_4_144" x1="147.688" y1="183.888" x2="147.688" y2="176.542" gradientUnits="userSpaceOnUse">
<stop stop-color="#FFDE41"/>
<stop offset="1" stop-color="#FFD200" stop-opacity="0"/>
</linearGradient>
<linearGradient id="paint5_linear_4_144" x1="141.361" y1="184.224" x2="141.361" y2="174.077" gradientUnits="userSpaceOnUse">
<stop stop-color="#FFDE41"/>
<stop offset="1" stop-color="#FFD200" stop-opacity="0"/>
</linearGradient>
</defs>
</svg>
